<svg xmlns="http://www.w3.org/2000/svg" version="1.1" xmlns:xlink="http://www.w3.org/1999/xlink" xmlns:svgjs="http://svgjs.dev/svgjs" width="1500" height="1500" viewBox="0 0 1500 1500"><rect width="1500" height="1500" fill="#000000"></rect><g transform="matrix(0.6666666666666666,0,0,0.6666666666666666,249.39393939393938,594.1182537059775)"><svg viewBox="0 0 396 123" data-background-color="#0080ff" preserveAspectRatio="xMidYMid meet" height="465" width="1500" xmlns="http://www.w3.org/2000/svg" xmlns:xlink="http://www.w3.org/1999/xlink"><g id="tight-bounds" transform="matrix(1,0,0,1,0.2400000000000091,0.34985417472503855)"><svg viewBox="0 0 395.52 122.30029165054992" height="122.30029165054992" width="395.52"><g><svg viewBox="0 0 650.0354081505783 200.99999999999997" height="122.30029165054992" width="395.52"><g><rect width="8.449137698422714" height="200.99999999999997" x="250.27778296529965" y="0" fill="#ffffff" opacity="1" stroke-width="0" stroke="transparent" fill-opacity="1" class="rect-yte-0" data-fill-palette-color="primary" rx="1%" id="yte-0" data-palette-color="#ffffff"></rect></g><g transform="matrix(1,0,0,1,280.84508217791796,0.4999999999999858)"><svg viewBox="0 0 369.19032597266033 200" height="200" width="369.19032597266033"><g id="textblocktransform"><svg viewBox="0 0 369.19032597266033 200" height="200" width="369.19032597266033" id="textblock"><g><svg viewBox="0 0 369.19032597266033 200" height="200" width="369.19032597266033"><g transform="matrix(1,0,0,1,0,0)"><svg width="369.19032597266033" viewBox="-1.95 -34.1 175.54999999999998 92.75" height="200" data-palette-color="#ffffff"><svg></svg><svg></svg><g class="wordmark-text-0" data-fill-palette-color="primary" id="text-0"><path d="M15.35-34.1v0c1.5 0 2.733 0.183 3.7 0.55 0.967 0.367 1.75 0.84 2.35 1.42 0.6 0.587 1.06 1.23 1.38 1.93 0.313 0.7 0.553 1.383 0.72 2.05v0l-4.2 1.95c-0.133-0.3-0.283-0.65-0.45-1.05-0.167-0.4-0.383-0.793-0.65-1.18-0.267-0.38-0.623-0.697-1.07-0.95-0.453-0.247-1.047-0.37-1.78-0.37v0c-0.667 0-1.29 0.107-1.87 0.32-0.587 0.22-1.097 0.513-1.53 0.88-0.433 0.367-0.773 0.8-1.02 1.3-0.253 0.5-0.38 1.05-0.38 1.65v0c0 0.6 0.077 1.133 0.23 1.6 0.147 0.467 0.363 0.883 0.65 1.25 0.28 0.367 0.603 0.7 0.97 1 0.367 0.3 0.783 0.617 1.25 0.95v0l4 2.95c1.2 0.9 2.233 2 3.1 3.3 0.867 1.3 1.3 2.933 1.3 4.9v0c0 1.7-0.357 3.19-1.07 4.47-0.72 1.287-1.663 2.37-2.83 3.25-1.167 0.887-2.49 1.547-3.97 1.98-1.487 0.433-3.013 0.65-4.58 0.65v0c-1.233 0-2.367-0.1-3.4-0.3-1.033-0.2-1.973-0.443-2.82-0.73-0.853-0.28-1.623-0.587-2.31-0.92-0.68-0.333-1.287-0.65-1.82-0.95v0l2.5-4.4c1.133 0.667 2.343 1.317 3.63 1.95 1.28 0.633 2.62 0.95 4.02 0.95v0c1.867 0 3.377-0.427 4.53-1.28 1.147-0.847 1.72-2.17 1.72-3.97v0c0-1.167-0.267-2.117-0.8-2.85-0.533-0.733-1.317-1.483-2.35-2.25v0l-3.75-2.8c-1.467-1.067-2.607-2.183-3.42-3.35-0.82-1.167-1.23-2.733-1.23-4.7v0c0-1.467 0.283-2.767 0.85-3.9 0.567-1.133 1.36-2.093 2.38-2.88 1.013-0.78 2.203-1.38 3.57-1.8 1.367-0.413 2.85-0.62 4.45-0.62zM25-20.45v-4.05h5l2.2-6.25 4.75-1.05-1.45 7.3h5.6l-0.7 4.05h-5.7l-2.8 14.75c-0.033 0.167-0.057 0.307-0.07 0.42-0.02 0.12-0.03 0.23-0.03 0.33v0c0 0.467 0.133 0.79 0.4 0.97 0.267 0.187 0.767 0.28 1.5 0.28v0c0.467 0 0.943-0.043 1.43-0.13 0.48-0.08 0.937-0.17 1.37-0.27v0c0.5-0.133 0.983-0.283 1.45-0.45v0 3.75c-0.567 0.233-1.183 0.433-1.85 0.6v0c-0.567 0.167-1.24 0.31-2.02 0.43-0.787 0.113-1.613 0.17-2.48 0.17v0c-2 0-3.427-0.36-4.28-1.08-0.847-0.713-1.27-1.753-1.27-3.12v0c0-0.433 0.05-0.9 0.15-1.4v0l3.05-15.25zM61.3-22.9l-2.9 4.65c-0.433-0.467-0.883-0.85-1.35-1.15-0.467-0.3-1.083-0.45-1.85-0.45v0c-0.467 0-0.923 0.217-1.37 0.65-0.453 0.433-0.887 1.007-1.3 1.72-0.42 0.72-0.813 1.537-1.18 2.45-0.367 0.92-0.683 1.847-0.95 2.78v0l-2.4 12.25h-5.6l2.55-12.6c0.2-0.967 0.343-1.867 0.43-2.7 0.08-0.833 0.12-1.583 0.12-2.25v0c0-1.833-0.167-3.167-0.5-4-0.333-0.833-0.583-1.383-0.75-1.65v0l4.55-1.8c0.367 0.467 0.677 1.033 0.93 1.7 0.247 0.667 0.37 1.517 0.37 2.55v0c0 0.7-0.057 1.473-0.17 2.32-0.12 0.853-0.213 1.663-0.28 2.43v0c0.7-3.033 1.617-5.283 2.75-6.75 1.133-1.467 2.633-2.2 4.5-2.2v0c1.133 0 2.05 0.19 2.75 0.57 0.7 0.387 1.25 0.88 1.65 1.48zM59.55-7.8c0-2.367 0.31-4.6 0.93-6.7 0.613-2.1 1.513-3.933 2.7-5.5 1.18-1.567 2.637-2.81 4.37-3.73 1.733-0.913 3.717-1.37 5.95-1.37v0c2.6 0 4.45 0.483 5.55 1.45 1.1 0.967 1.65 2.283 1.65 3.95v0c0 1.467-0.373 2.8-1.12 4-0.753 1.2-1.803 2.25-3.15 3.15-1.353 0.9-2.963 1.623-4.83 2.17-1.867 0.553-3.917 0.88-6.15 0.98v0c-0.033 0.3-0.05 0.6-0.05 0.9 0 0.3 0 0.583 0 0.85v0c0 1.567 0.333 2.65 1 3.25 0.667 0.6 1.55 0.9 2.65 0.9v0c0.667 0 1.427-0.1 2.28-0.3 0.847-0.2 1.67-0.433 2.47-0.7v0c0.9-0.3 1.85-0.65 2.85-1.05v0l1.15 3.6c-1 0.467-2.05 0.883-3.15 1.25v0c-0.933 0.333-1.99 0.627-3.17 0.88-1.187 0.247-2.38 0.37-3.58 0.37v0c-1.567 0-2.883-0.233-3.95-0.7-1.067-0.467-1.923-1.09-2.57-1.87-0.653-0.787-1.12-1.68-1.4-2.68-0.287-1-0.43-2.033-0.43-3.1zM72.35-21.25c-0.767 0-1.483 0.223-2.15 0.67-0.667 0.453-1.257 1.063-1.77 1.83-0.52 0.767-0.98 1.65-1.38 2.65-0.4 1-0.733 2.033-1 3.1v0c1.5-0.1 2.81-0.343 3.93-0.73 1.113-0.38 2.047-0.853 2.8-1.42 0.747-0.567 1.313-1.167 1.7-1.8 0.38-0.633 0.57-1.25 0.57-1.85v0c0-0.767-0.207-1.367-0.62-1.8-0.42-0.433-1.113-0.65-2.08-0.65zM90.95-3.7c0.833 0 1.667-0.467 2.5-1.4 0.833-0.933 1.6-2.077 2.3-3.43 0.7-1.347 1.31-2.797 1.83-4.35 0.513-1.547 0.903-2.953 1.17-4.22v0l0.7-3.45c-0.4-0.2-0.857-0.333-1.37-0.4-0.52-0.067-1.013-0.1-1.48-0.1v0c-1.5 0-2.773 0.423-3.82 1.27-1.053 0.853-1.903 1.937-2.55 3.25-0.653 1.32-1.12 2.77-1.4 4.35-0.287 1.587-0.43 3.097-0.43 4.53v0c0 1.467 0.21 2.49 0.63 3.07 0.413 0.587 1.053 0.88 1.92 0.88zM89.1 0.4c-1.2 0-2.217-0.233-3.05-0.7-0.833-0.467-1.517-1.093-2.05-1.88-0.533-0.78-0.923-1.663-1.17-2.65-0.253-0.98-0.38-1.987-0.38-3.02v0c0-2.367 0.31-4.583 0.93-6.65 0.613-2.067 1.52-3.877 2.72-5.43 1.2-1.547 2.667-2.763 4.4-3.65 1.733-0.88 3.733-1.32 6-1.32v0c0.567 0 1.367 0.057 2.4 0.17 1.033 0.12 2.217 0.463 3.55 1.03v0l3.15 0.2-2.25 11.65c-0.333 1.767-0.5 3.317-0.5 4.65v0c0 1.633 0.21 2.89 0.63 3.77 0.413 0.887 0.803 1.597 1.17 2.13v0l-4.5 1.8c-0.5-0.567-0.907-1.267-1.22-2.1-0.32-0.833-0.48-1.783-0.48-2.85v0c0-0.433 0.033-0.993 0.1-1.68 0.067-0.68 0.15-1.453 0.25-2.32v0l-0.85 2c-0.567 1.3-1.183 2.39-1.85 3.27-0.667 0.887-1.373 1.597-2.12 2.13-0.753 0.533-1.537 0.91-2.35 1.13-0.82 0.213-1.663 0.32-2.53 0.32zM145.45-18.8c0 1.3-0.167 2.583-0.5 3.85-0.333 1.267-0.707 2.483-1.12 3.65-0.42 1.167-0.797 2.29-1.13 3.37-0.333 1.087-0.5 2.13-0.5 3.13v0c0 0.667 0.033 1.44 0.1 2.32 0.067 0.887 0.183 1.713 0.35 2.48v0h-5.6c-0.1-0.567-0.157-1.093-0.17-1.58-0.02-0.48-0.03-0.953-0.03-1.42v0c0-1.3 0.15-2.583 0.45-3.85 0.3-1.267 0.633-2.517 1-3.75 0.367-1.233 0.7-2.433 1-3.6 0.3-1.167 0.45-2.283 0.45-3.35v0c0-0.8-0.173-1.477-0.52-2.03-0.353-0.547-0.98-0.82-1.88-0.82v0c-0.733 0-1.483 0.34-2.25 1.02-0.767 0.687-1.483 1.57-2.15 2.65-0.667 1.087-1.267 2.297-1.8 3.63-0.533 1.333-0.917 2.667-1.15 4v0l-1.75 9.1h-5.6l2.5-12.6c0.2-0.967 0.35-1.91 0.45-2.83 0.1-0.913 0.15-1.62 0.15-2.12v0c0-0.8-0.173-1.477-0.52-2.03-0.353-0.547-0.98-0.82-1.88-0.82v0c-0.733 0-1.483 0.34-2.25 1.02-0.767 0.687-1.49 1.57-2.17 2.65-0.687 1.087-1.297 2.303-1.83 3.65-0.533 1.353-0.917 2.697-1.15 4.03v0l-1.75 9.05h-5.6l2.55-12.6c0.2-0.967 0.343-1.867 0.43-2.7 0.08-0.833 0.12-1.583 0.12-2.25v0c0-1.833-0.167-3.167-0.5-4-0.333-0.833-0.583-1.383-0.75-1.65v0l4.55-1.8c0.367 0.467 0.677 1.033 0.93 1.7 0.247 0.667 0.37 1.517 0.37 2.55v0c0 0.7-0.057 1.45-0.17 2.25-0.12 0.8-0.213 1.583-0.28 2.35v0l0.75-1.9c0.9-2.3 2.093-4.017 3.58-5.15 1.48-1.133 3.12-1.7 4.92-1.7v0c1.967 0 3.46 0.517 4.48 1.55 1.013 1.033 1.553 2.417 1.62 4.15v0c1.867-3.8 4.517-5.7 7.95-5.7v0c2.1 0 3.677 0.55 4.73 1.65 1.047 1.1 1.57 2.583 1.57 4.45z" fill="#ffffff" fill-rule="nonzero" stroke="none" stroke-width="1" stroke-linecap="butt" stroke-linejoin="miter" stroke-miterlimit="10" stroke-dasharray="" stroke-dashoffset="0" font-family="none" font-weight="none" font-size="none" text-anchor="none" style="mix-blend-mode: normal" data-fill-palette-color="primary" opacity="1"></path><path transform="translate(0,47.55)" d="M-1.95-0.95l18.25-32.5h4.55l6.4 33.45h-6.1l-1.45-9h-11.2l-4.75 9.4zM19.1-13.15c-0.467-2.833-0.833-5.41-1.1-7.73-0.267-2.313-0.483-4.17-0.65-5.57v0c-0.767 1.467-1.74 3.35-2.92 5.65-1.187 2.3-2.48 4.85-3.88 7.65v0zM28.25 11.1l4.6-23.7c0.2-0.967 0.34-1.867 0.42-2.7 0.087-0.833 0.13-1.583 0.13-2.25v0c0-1.833-0.167-3.167-0.5-4-0.333-0.833-0.583-1.383-0.75-1.65v0l4.55-1.8c0.367 0.467 0.677 1.033 0.93 1.7 0.247 0.667 0.37 1.517 0.37 2.55v0c0 0.267-0.017 0.583-0.05 0.95-0.033 0.367-0.067 0.75-0.1 1.15-0.033 0.4-0.073 0.79-0.12 1.17-0.053 0.387-0.097 0.697-0.13 0.93v0l0.65-1.45c0.567-1.333 1.183-2.443 1.85-3.33 0.667-0.88 1.377-1.587 2.13-2.12 0.747-0.533 1.53-0.91 2.35-1.13 0.813-0.213 1.653-0.32 2.52-0.32v0c1.2 0 2.217 0.233 3.05 0.7 0.833 0.467 1.517 1.09 2.05 1.87 0.533 0.787 0.927 1.67 1.18 2.65 0.247 0.987 0.37 1.997 0.37 3.03v0c0 2.367-0.307 4.583-0.92 6.65-0.62 2.067-1.53 3.873-2.73 5.42-1.2 1.553-2.677 2.77-4.43 3.65-1.747 0.887-3.737 1.33-5.97 1.33v0c-0.667 0-1.323-0.04-1.97-0.12-0.653-0.087-1.263-0.197-1.83-0.33v0l-2 10.15zM36.65-3.95c0.5 0.167 1.007 0.29 1.52 0.37 0.52 0.087 0.997 0.13 1.43 0.13v0c1.5 0 2.767-0.427 3.8-1.28 1.033-0.847 1.873-1.93 2.52-3.25 0.653-1.313 1.13-2.763 1.43-4.35 0.3-1.58 0.45-3.087 0.45-4.52v0c0-1.467-0.21-2.493-0.63-3.08-0.413-0.58-1.053-0.87-1.92-0.87v0c-0.867 0-1.683 0.383-2.45 1.15-0.767 0.767-1.5 1.85-2.2 3.25-0.7 1.4-1.357 3.067-1.97 5-0.62 1.933-1.197 4.05-1.73 6.35v0zM55 11.1l4.6-23.7c0.2-0.967 0.34-1.867 0.42-2.7 0.087-0.833 0.13-1.583 0.13-2.25v0c0-1.833-0.167-3.167-0.5-4-0.333-0.833-0.583-1.383-0.75-1.65v0l4.55-1.8c0.367 0.467 0.677 1.033 0.93 1.7 0.247 0.667 0.37 1.517 0.37 2.55v0c0 0.267-0.017 0.583-0.05 0.95-0.033 0.367-0.067 0.75-0.1 1.15-0.033 0.4-0.077 0.79-0.13 1.17-0.047 0.387-0.087 0.697-0.12 0.93v0l0.65-1.45c0.567-1.333 1.183-2.443 1.85-3.33 0.667-0.88 1.373-1.587 2.12-2.12 0.753-0.533 1.54-0.91 2.36-1.13 0.813-0.213 1.653-0.32 2.52-0.32v0c1.2 0 2.217 0.233 3.05 0.7 0.833 0.467 1.517 1.09 2.05 1.87 0.533 0.787 0.927 1.67 1.18 2.65 0.247 0.987 0.37 1.997 0.37 3.03v0c0 2.367-0.307 4.583-0.92 6.65-0.62 2.067-1.53 3.873-2.73 5.42-1.2 1.553-2.677 2.77-4.43 3.65-1.747 0.887-3.737 1.33-5.97 1.33v0c-0.667 0-1.327-0.04-1.98-0.12-0.647-0.087-1.253-0.197-1.82-0.33v0l-2 10.15zM63.4-3.95c0.5 0.167 1.007 0.29 1.52 0.37 0.52 0.087 0.997 0.13 1.43 0.13v0c1.5 0 2.767-0.427 3.8-1.28 1.033-0.847 1.873-1.93 2.52-3.25 0.653-1.313 1.13-2.763 1.43-4.35 0.3-1.58 0.45-3.087 0.45-4.52v0c0-1.467-0.21-2.493-0.63-3.08-0.413-0.58-1.053-0.87-1.92-0.87v0c-0.867 0-1.683 0.383-2.45 1.15-0.767 0.767-1.5 1.85-2.2 3.25-0.7 1.4-1.357 3.067-1.97 5-0.62 1.933-1.197 4.05-1.73 6.35v0zM102.65-22.9l-2.9 4.65c-0.433-0.467-0.883-0.85-1.35-1.15-0.467-0.3-1.083-0.45-1.85-0.45v0c-0.467 0-0.927 0.217-1.38 0.65-0.447 0.433-0.877 1.007-1.29 1.72-0.42 0.72-0.813 1.537-1.18 2.45-0.367 0.92-0.683 1.847-0.95 2.78v0l-2.4 12.25h-5.6l2.55-12.6c0.2-0.967 0.34-1.867 0.42-2.7 0.087-0.833 0.13-1.583 0.13-2.25v0c0-1.833-0.167-3.167-0.5-4-0.333-0.833-0.583-1.383-0.75-1.65v0l4.55-1.8c0.367 0.467 0.677 1.033 0.93 1.7 0.247 0.667 0.37 1.517 0.37 2.55v0c0 0.7-0.057 1.473-0.17 2.32-0.12 0.853-0.213 1.663-0.28 2.43v0c0.7-3.033 1.617-5.283 2.75-6.75 1.133-1.467 2.633-2.2 4.5-2.2v0c1.133 0 2.05 0.19 2.75 0.57 0.7 0.387 1.25 0.88 1.65 1.48zM114.85-25.1c1.6 0 2.933 0.233 4 0.7 1.067 0.467 1.927 1.09 2.58 1.87 0.647 0.787 1.103 1.68 1.37 2.68 0.267 1 0.4 2.033 0.4 3.1v0c0 2.4-0.307 4.65-0.92 6.75-0.62 2.1-1.513 3.933-2.68 5.5-1.167 1.567-2.623 2.8-4.37 3.7-1.753 0.9-3.747 1.35-5.98 1.35v0c-1.567 0-2.883-0.233-3.95-0.7-1.067-0.467-1.923-1.09-2.57-1.87-0.653-0.787-1.12-1.68-1.4-2.68-0.287-1-0.43-2.033-0.43-3.1v0c0-2.367 0.31-4.6 0.93-6.7 0.613-2.1 1.513-3.933 2.7-5.5 1.18-1.567 2.637-2.81 4.37-3.73 1.733-0.913 3.717-1.37 5.95-1.37zM113.7-21.25c-1.1 0-2.073 0.457-2.92 1.37-0.853 0.92-1.57 2.07-2.15 3.45-0.587 1.387-1.03 2.88-1.33 4.48-0.3 1.6-0.45 3.1-0.45 4.5v0c0 1.567 0.317 2.65 0.95 3.25 0.633 0.6 1.5 0.9 2.6 0.9v0c1.1 0 2.077-0.457 2.93-1.37 0.847-0.92 1.563-2.073 2.15-3.46 0.58-1.38 1.02-2.88 1.32-4.5 0.3-1.613 0.45-3.103 0.45-4.47v0c0-1.567-0.317-2.65-0.95-3.25-0.633-0.6-1.5-0.9-2.6-0.9zM143.95-23.65l4.8-1.2c0.367 0.733 0.617 1.557 0.75 2.47 0.133 0.92 0.2 1.78 0.2 2.58v0c0 1.6-0.167 3.217-0.5 4.85-0.333 1.633-0.807 3.207-1.42 4.72-0.62 1.52-1.37 2.93-2.25 4.23-0.887 1.3-1.88 2.417-2.98 3.35v0c-1.267 1.067-2.593 1.84-3.98 2.32-1.38 0.487-3.103 0.73-5.17 0.73v0c-2.1 0-3.7-0.46-4.8-1.38-1.1-0.913-1.65-2.353-1.65-4.32v0c0-0.233 0.017-0.543 0.05-0.93 0.033-0.38 0.077-0.77 0.13-1.17 0.047-0.4 0.097-0.783 0.15-1.15 0.047-0.367 0.087-0.667 0.12-0.9v0l2.9-15.05h5.45l-2.85 14.9c-0.033 0.167-0.067 0.39-0.1 0.67-0.033 0.287-0.067 0.58-0.1 0.88-0.033 0.3-0.067 0.583-0.1 0.85-0.033 0.267-0.05 0.467-0.05 0.6v0c0 0.933 0.233 1.683 0.7 2.25 0.467 0.567 1.15 0.85 2.05 0.85v0c1.133 0 2.243-0.55 3.33-1.65 1.08-1.1 2.037-2.477 2.87-4.13 0.833-1.647 1.5-3.447 2-5.4 0.5-1.947 0.75-3.77 0.75-5.47v0c0-0.433-0.023-1.033-0.07-1.8-0.053-0.767-0.13-1.333-0.23-1.7zM152.45-7.8c0-2.367 0.31-4.6 0.93-6.7 0.613-2.1 1.51-3.933 2.69-5.5 1.187-1.567 2.647-2.81 4.38-3.73 1.733-0.913 3.717-1.37 5.95-1.37v0c2.6 0 4.45 0.483 5.55 1.45 1.1 0.967 1.65 2.283 1.65 3.95v0c0 1.467-0.377 2.8-1.13 4-0.747 1.2-1.797 2.25-3.15 3.15-1.347 0.9-2.953 1.623-4.82 2.17-1.867 0.553-3.917 0.88-6.15 0.98v0c-0.033 0.3-0.05 0.6-0.05 0.9 0 0.3 0 0.583 0 0.85v0c0 1.567 0.333 2.65 1 3.25 0.667 0.6 1.55 0.9 2.65 0.9v0c0.667 0 1.423-0.1 2.27-0.3 0.853-0.2 1.68-0.433 2.48-0.7v0c0.9-0.3 1.85-0.65 2.85-1.05v0l1.15 3.6c-1 0.467-2.05 0.883-3.15 1.25v0c-0.933 0.333-1.99 0.627-3.17 0.88-1.187 0.247-2.38 0.37-3.58 0.37v0c-1.567 0-2.883-0.233-3.95-0.7-1.067-0.467-1.927-1.09-2.58-1.87-0.647-0.787-1.11-1.68-1.39-2.68-0.287-1-0.43-2.033-0.43-3.1zM165.25-21.25c-0.767 0-1.483 0.223-2.15 0.67-0.667 0.453-1.26 1.063-1.78 1.83-0.513 0.767-0.97 1.65-1.37 2.65-0.4 1-0.733 2.033-1 3.1v0c1.5-0.1 2.81-0.343 3.93-0.73 1.113-0.38 2.043-0.853 2.79-1.42 0.753-0.567 1.323-1.167 1.71-1.8 0.38-0.633 0.57-1.25 0.57-1.85v0c0-0.767-0.21-1.367-0.63-1.8-0.413-0.433-1.103-0.65-2.07-0.65z" fill="#ffffff" fill-rule="nonzero" stroke="none" stroke-width="1" stroke-linecap="butt" stroke-linejoin="miter" stroke-miterlimit="10" stroke-dasharray="" stroke-dashoffset="0" font-family="none" font-weight="none" font-size="none" text-anchor="none" style="mix-blend-mode: normal" data-fill-palette-color="primary" opacity="1"></path></g></svg></g></svg></g></svg></g></svg></g><g transform="matrix(1,0,0,1,0,18.479105233016327)"><svg viewBox="0 0 228.15962145110407 164.04178953396732" height="164.04178953396732" width="228.15962145110407"><g><svg xmlns="http://www.w3.org/2000/svg" xmlns:xlink="http://www.w3.org/1999/xlink" version="1.1" x="0" y="0" viewBox="3.909 16.885874614774405 92.181 66.2761276726227" enable-background="new 0 0 100 100" xml:space="preserve" height="164.04178953396732" width="228.15962145110407" class="icon-icon-0" data-fill-palette-color="accent" id="icon-0"><g fill="#ffffff" data-fill-palette-color="accent"><path d="M81.186 83.162A1.978 1.978 0 0 1 79.788 79.788C87.752 71.823 92.138 61.245 92.138 50S87.752 28.175 79.788 20.211A1.978 1.978 0 0 1 82.584 17.416C91.293 26.127 96.09 37.697 96.09 50 96.09 62.302 91.293 73.873 82.583 82.583A1.97 1.97 0 0 1 81.186 83.162" fill="#ffffff" data-fill-palette-color="accent"></path></g><g fill="#ffffff" data-fill-palette-color="accent"><path d="M18.814 83.162A1.97 1.97 0 0 1 17.416 82.583C8.706 73.873 3.909 62.302 3.909 50 3.909 37.697 8.706 26.127 17.416 17.417A1.978 1.978 0 0 1 20.212 20.212C12.248 28.175 7.862 38.754 7.862 50S12.248 71.823 20.212 79.788A1.978 1.978 0 0 1 18.814 83.162" fill="#ffffff" data-fill-palette-color="accent"></path></g><g fill="#ffffff" data-fill-palette-color="accent"><path d="M26.61 75.366A1.97 1.97 0 0 1 25.213 74.786C18.586 68.16 14.938 59.357 14.938 49.999S18.586 31.838 25.213 25.212A1.977 1.977 0 0 1 28.008 28.008C22.129 33.887 18.891 41.697 18.891 49.999 18.891 58.302 22.129 66.112 28.008 71.99A1.977 1.977 0 0 1 26.61 75.366" fill="#ffffff" data-fill-palette-color="accent"></path></g><g fill="#ffffff" data-fill-palette-color="accent"><path d="M73.389 75.366A1.977 1.977 0 0 1 71.992 71.99C77.871 66.112 81.11 58.302 81.11 49.999 81.11 41.698 77.872 33.887 71.992 28.008A1.977 1.977 0 0 1 74.787 25.212C81.413 31.838 85.062 40.641 85.062 49.999S81.413 68.16 74.787 74.786C74.4 75.172 73.895 75.366 73.389 75.366" fill="#ffffff" data-fill-palette-color="accent"></path></g><g fill="#ffffff" data-fill-palette-color="accent"><path d="M65.592 67.568A1.975 1.975 0 0 1 64.196 64.194C67.989 60.399 70.08 55.359 70.08 50S67.99 39.6 64.195 35.805A1.978 1.978 0 0 1 66.99 33.009C71.531 37.551 74.032 43.586 74.032 50 74.032 56.415 71.531 62.448 66.989 66.99A1.97 1.97 0 0 1 65.592 67.568" fill="#ffffff" data-fill-palette-color="accent"></path></g><g fill="#ffffff" data-fill-palette-color="accent"><path d="M34.406 67.568A1.97 1.97 0 0 1 33.009 66.99C23.641 57.622 23.641 42.378 33.009 33.009A1.98 1.98 0 0 1 35.805 33.009 1.98 1.98 0 0 1 35.805 35.805C27.977 43.632 27.977 56.368 35.805 64.196A1.98 1.98 0 0 1 35.805 66.991 1.98 1.98 0 0 1 34.406 67.568" fill="#ffffff" data-fill-palette-color="accent"></path></g><polygon points="58.564,50 43.679,57.278 43.679,50 43.679,42.72 " fill="#ffffff" data-fill-palette-color="accent"></polygon><path d="M61.502 38.497C55.145 32.14 44.856 32.14 38.497 38.497 32.14 44.855 32.14 55.145 38.498 61.503 44.855 67.859 55.144 67.859 61.502 61.503 67.86 55.145 67.86 44.854 61.502 38.497M58.729 58.729C53.905 63.553 46.095 63.553 41.269 58.729 36.444 53.904 36.444 46.094 41.269 41.27 46.095 36.445 53.904 36.445 58.729 41.27S63.555 53.904 58.729 58.729" fill="#ffffff" data-fill-palette-color="accent"></path></svg></g></svg></g></svg></g><defs></defs></svg><rect width="395.52" height="122.30029165054992" fill="none" stroke="none" visibility="hidden"></rect></g></svg></g></svg>